<svg width="132" height="134" xmlns="http://www.w3.org/2000/svg" preserveAspectRatio="xMidYMid meet">
 <g fill="#333" class="icon-text-wrapper icon-svg-group iconsvg">
  <g class="iconsvg-imagesvg" id="svg_3">
   <g id="svg_4">
    <rect fill="#333" fill-opacity="0" stroke-width="2" x="113.6" y="39.35999" width="112.8" height="112.8" class="image-rect" id="svg_5"/>
    <g id="svg_1">
     <svg x="10" y="10" width="112.8" height="112.8" class="image-svg-svg primary" id="svg_7">
      <g id="svg_8">
       <svg viewBox="0 -0.000004769586212205468 112.33999633789062 112.34001159667969" id="svg_17">
        <title>资源 134</title>
        <path d="m82.78,73.42a11.52,11.52 0 0 0 -0.82,-17a11.72,11.72 0 0 0 -15.69,1l-4.44,4.44l-4.68,4.64a27.51,27.51 0 1 1 -38.9,-38.9l4.67,-4.68a13.42,13.42 0 0 0 -9.49,-22.92a13.43,13.43 0 0 0 -13.43,13.43l0,85.48a13.43,13.43 0 0 0 13.43,13.43l24.87,0a13.43,13.43 0 0 0 9.5,-3.93l34.98,-34.99z" fill="#15b788" id="svg_19"/>
        <path d="m74,0a13.43,13.43 0 0 0 -9.5,3.93l-35,35a11.51,11.51 0 0 0 16.34,16.26l4.67,-4.68l4.27,-4.26c10.58,-10.59 27.82,-11.25 38.72,-0.99a27.53,27.53 0 0 1 0.59,39.48l-4.67,4.68a13.42,13.42 0 0 0 9.49,22.92a13.43,13.43 0 0 0 13.43,-13.43l0,-85.48a13.43,13.43 0 0 0 -13.43,-13.43l-24.91,0z" fill="#1395ba" id="svg_18"/>
       </svg>
      </g>
     </svg>
    </g>
    <!---->
   </g>
  </g>
  <g id="svg_10">
   <g class="tp-name iconsvg-namesvg" id="svg_11">
    <g transform="translate(80.94000244140625,39.35999298095703) scale(1) " id="svg_12">
     <g id="svg_13">
      <path id="svg_14"/>
     </g>
     <!---->
     <!---->
     <!---->
     <!---->
     <!---->
     <!---->
     <!---->
    </g>
   </g>
   <!---->
  </g>
 </g>

 <g>
  <title>Layer 1</title>
 </g>
 <g>
  <title>background</title>
 </g>
</svg>