<svg width="340" height="250" xmlns="http://www.w3.org/2000/svg" preserveAspectRatio="xMidYMid meet">
 <g fill="#333" class="icon-text-wrapper icon-svg-group iconsvg">
  <g class="iconsvg-imagesvg" id="svg_3">
   <g id="svg_4">
    <rect fill="#333" fill-opacity="0" stroke-width="2" x="113.6" y="39.35999" width="112.8" height="112.8" class="image-rect" id="svg_5"/>
    <g id="svg_1">
     <svg x="113.6" y="39.35999" width="112.8" height="112.8" class="image-svg-svg primary" id="svg_15">
      <g id="svg_16">
       <svg viewBox="0 -0.000004769586212205468 112.33999633789062 112.34001159667969" id="svg_27">
        <title>资源 134</title>
        <path d="m82.78,73.42a11.52,11.52 0 0 0 -0.82,-17a11.72,11.72 0 0 0 -15.69,1l-4.44,4.44l-4.68,4.64a27.51,27.51 0 1 1 -38.9,-38.9l4.67,-4.68a13.42,13.42 0 0 0 -9.49,-22.92a13.43,13.43 0 0 0 -13.43,13.43l0,85.48a13.43,13.43 0 0 0 13.43,13.43l24.87,0a13.43,13.43 0 0 0 9.5,-3.93l34.98,-34.99z" fill="#15b788" id="svg_29"/>
        <path d="m74,0a13.43,13.43 0 0 0 -9.5,3.93l-35,35a11.51,11.51 0 0 0 16.34,16.26l4.67,-4.68l4.27,-4.26c10.58,-10.59 27.82,-11.25 38.72,-0.99a27.53,27.53 0 0 1 0.59,39.48l-4.67,4.68a13.42,13.42 0 0 0 9.49,22.92a13.43,13.43 0 0 0 13.43,-13.43l0,-85.48a13.43,13.43 0 0 0 -13.43,-13.43l-24.91,0z" fill="#1395ba" id="svg_28"/>
       </svg>
      </g>
     </svg>
    </g>
    <!---->
   </g>
  </g>
  <g id="svg_10">
   <g class="tp-name iconsvg-namesvg" id="svg_11">
    <g transform="translate(80.94000244140625,39.35999298095703) scale(1) " id="svg_12">
     <g id="svg_13">
      <path d="m5.04,129.08l0,0l0.41,-0.23q5.99,1.17 7.29,4.23l0,0q0.76,1.89 -0.59,3.2l0,0q-1.35,1.35 -3.28,0.4l0,0q-0.45,-0.18 -0.85,-0.54l0,0q-0.37,-3.1 -2.98,-7.06zm7.16,19.62l0,0l0,0.22q5.9,1.3 7.29,4.5l0,0q0.9,1.94 -0.41,3.29l0,0q-1.25,1.3 -3.1,0.31l0,0q-0.27,-0.18 -0.54,-0.36l0,0q-0.63,-2.97 -3.24,-6.52l0,0l0,19.21q0,0.18 -0.5,0.54l0,0q-0.44,0.36 -1.48,0.67l0,0q-1.03,0.36 -2.2,0.36l0,0l-0.91,0l0,-17.23q-3.01,2.61 -6.7,4.72l0,0l-0.41,-0.4q3.87,-3.6 7.16,-8.59q3.28,-5 4.9,-9.54l0,0l-10.8,0l-0.4,-1.31l16.56,0l0,2.43q-2.11,4.01 -5.22,7.7zm19.53,18.58l11.38,0l0,1.3l-27.71,0l-0.37,-1.3l11.21,0l0,-21.06l-8.1,0l-0.36,-1.26l8.46,0l0,-15.75l5.49,0.68l0,15.07l10.48,0l0,1.26l-10.48,0l0,21.06zm21.91,-0.18l34.16,0l0,1.26q0,0 -33.79,0l0,0l-5.67,0l0,-37.75l5.89,2.25l31.68,0l0,1.26l-32.27,0l0,32.98zm20.75,-30.87l0,0l4.99,3.24q-2.34,5.49 -5.48,9.59l0,0q5.48,4.86 6.16,9l0,0q0.36,2.61 -1.26,3.33l0,0q-1.35,0.58 -3.2,-0.5l0,0q-1.7,-3.15 -5.31,-7.65l0,0q-5.98,6.07 -13.99,9.68l0,0l-0.41,-0.5q6.26,-4.77 11.53,-12.46l0,0q-4.68,-5.18 -9.95,-9.99l0,0l0.54,-0.36q6.98,2.97 11.92,6.34l0,0q2.88,-5.13 4.46,-9.72zm56.75,13.1l0,1.3l-14.36,0q-0.32,1.31 -0.58,2.02l0,0q7.96,1.49 10.7,5.49l0,0q1.63,2.39 0.59,4.24l0,0q-0.9,1.62 -2.97,1.12l0,0q-0.45,-0.09 -0.9,-0.32l0,0q-2.12,-4.22 -8.01,-9.13l0,0q-1.58,3.51 -5.22,6.03l0,0q-3.6,2.52 -10.13,4.37l0,0l-0.4,-0.68q5.71,-2.52 8.32,-5.67q2.61,-3.15 3.33,-7.47l0,0l-10.84,0l-0.36,-1.3l11.43,0q0.22,-1.89 0.32,-7.43l0,0l-3.16,0q-3.1,4.23 -7.37,6.57l0,0l-0.55,-0.41q3.78,-4.94 5.54,-13.27l0,0l4.82,2.2q-0.63,2.07 -1.58,3.65l0,0l18.4,0l0,1.26l-10.57,0q-0.18,5.13 -0.58,7.43l0,0l14.13,0zm-32.49,17.77l34.19,0l0,1.26l-39.5,0l0,-37.75l5.89,2.25l31.73,0l0,1.26l-32.31,0l0,32.98zm37.53,-30.02l0,0l0.49,-0.22q4.99,2.56 5.76,6.12l0,0q0.5,2.25 -0.9,3.37l0,0q-1.35,1.13 -2.97,-0.22l0,0q-0.09,-0.09 -0.22,-0.23l0,0q0.31,-4.13 -2.16,-8.82zm13.45,4.69l24.8,0l0,2.02q-5.45,3.42 -9.81,5.22l0,0l2.34,0.23q-0.14,0.98 -1.53,1.16l0,0l0,14.36q0,1.49 -0.28,2.43l0,0q-0.22,0.99 -1.03,1.84l0,0q-0.77,0.86 -2.29,1.35l0,0q-1.49,0.5 -3.92,0.68l0,0q-0.36,-2.75 -1.35,-3.64l0,0q-1.35,-1.26 -4.86,-1.85l0,0l0,-0.58q6.12,0.36 7.24,0.36l0,0q0.99,0 0.99,-0.86l0,0l0,-15.89l2.97,0.28q2.84,-2.48 5.22,-5.81l0,0l-18.09,0l-0.4,-1.3zm13.09,-6.03l15.4,0l0,1.25l-30.02,0l0,9.46q0,2.88 -0.18,5.13q-0.18,2.24 -0.9,5.26l0,0q-0.68,2.97 -1.93,5.35l0,0q-1.22,2.35 -3.56,4.82l0,0q-2.29,2.43 -5.49,4.27l0,0l-0.45,-0.31q6.57,-7.2 7.29,-19.62l0,0q-1.85,3.24 -4.14,6.71l0,0q0,1.08 -0.81,1.62l0,0l-2.97,-5.76q2.79,-1.49 8.01,-5.04l0,0q0.05,-0.77 0.05,-2.43l0,0l0,-13.28l5.89,2.57l11.7,0q-0.31,-0.09 -0.95,-0.45l0,0q-0.76,-3.24 -3.64,-6.21l0,0l0.32,-0.28q6.21,0.1 7.82,2.93l0,0q0.95,1.71 -0.22,3.15l0,0q-0.5,0.59 -1.22,0.86l0,0z" id="svg_14"/>
     </g>
     <!---->
     <!---->
     <!---->
     <!---->
     <!---->
     <!---->
     <!---->
    </g>
   </g>
   <!---->
  </g>
 </g>

 <g>
  <title>Layer 1</title>
  <path fill="none" stroke-width="null" id="svg_17" d="m70.5,90.45313c1,0 1.91593,1.22453 7,3c9.85656,3.44213 23.01414,7.94837 45,14c18.01169,4.95773 37,10 51,14l7,3l5,2l4,1"/>
  <path fill="#6F5C2A" stroke-width="null" id="svg_18" d="m153.5,108.45313c1,0 3,0 10,0c6,0 10,0 13,0c1,0 3,0 5,0c1,0 2,0 3,0l1,0"/>
  <path fill="none" stroke-width="null" id="svg_19" d="m56.5,161.45313c1,0 4,0 14,0c14,0 34,2 55,2c21,0 40,0 52,0l8,0l2,-1"/>
  <path fill="none" stroke-width="null" id="svg_20" d="m114.5,119.45313c1,-1 7.10271,-2.14138 19,-4c13.18178,-2.0593 32.07323,-5.42499 50,-8c17.0873,-2.45444 28,-5 36,-7l5,-1l1,0l1,0"/>
  <path fill="none" stroke-width="null" id="svg_21" d="m90.5,24.45313c4,9 11.84438,21.57986 17,33c4.81606,10.66796 7,20 9,31c2,11 2,20 2,27l0,2"/>
  <path fill="none" stroke-width="null" id="svg_22" d="m69.5,75.45313c0,2 -0.72712,9.20556 3,21c4.1969,13.28104 10.22314,22.89099 16,35c5.20274,10.90556 12,19 19,25l11,6l13,2l2,0"/>
  <path fill="none" stroke-width="null" id="svg_23" d="m221.5,70.45313c-5,4 -14.44565,11.66904 -24,25c-10.50188,14.653 -17.64873,29.57535 -21,46c-2.00917,9.84698 -3,18 -3,19l-1,0"/>
 </g>
 <g>
  <title>background</title>
 </g>
</svg>